<svg xmlns="http://www.w3.org/2000/svg" width="1140" height="450" viewBox="0 0 1140 450">
  <defs>
    <linearGradient id="bg" x1="0" y1="0" x2="1" y2="1">
      <stop stop-color="#061421"/>
      <stop offset="1" stop-color="#0b2940"/>
    </linearGradient>
    <linearGradient id="ramp" x1="0" y1="0" x2="1" y2="0">
      <stop stop-color="#1d4f68"/>
      <stop offset="1" stop-color="#38bdf8"/>
    </linearGradient>
  </defs>
  <rect width="1140" height="450" rx="28" fill="url(#bg)"/>
  <rect x="1" y="1" width="1138" height="448" rx="27" fill="none" stroke="#38bdf8" stroke-opacity=".35"/>
  <text x="42" y="48" fill="#7dd3fc" font-family="Microsoft YaHei,sans-serif" font-size="15" font-weight="700">3D PHYSICS LAB</text>
  <text x="42" y="86" fill="#f8fafc" font-family="Microsoft YaHei,sans-serif" font-size="30" font-weight="700">斜面运动实验台</text>
  <text x="42" y="115" fill="#91aabd" font-family="Microsoft YaHei,sans-serif" font-size="14">调节倾角和摩擦，观察滑块运动</text>
  <g transform="translate(68 332) rotate(-20)">
    <rect x="0" y="-26" width="610" height="32" rx="8" fill="url(#ramp)"/>
    <rect x="472" y="-86" width="84" height="64" rx="12" fill="#fb923c" stroke="#fed7aa" stroke-width="3"/>
    <circle cx="492" cy="-17" r="12" fill="#172033" stroke="#94a3b8" stroke-width="4"/>
    <circle cx="538" cy="-17" r="12" fill="#172033" stroke="#94a3b8" stroke-width="4"/>
  </g>
  <path d="M510 148v84" stroke="#fb7185" stroke-width="7" stroke-linecap="round"/>
  <path d="m494 215 16 22 16-22" fill="none" stroke="#fb7185" stroke-width="7" stroke-linecap="round" stroke-linejoin="round"/>
  <path d="M510 216 457 177" stroke="#fbbf24" stroke-width="6" stroke-linecap="round"/>
  <path d="m465 196-14-23 26 5" fill="none" stroke="#fbbf24" stroke-width="6" stroke-linecap="round" stroke-linejoin="round"/>
  <rect x="754" y="32" width="350" height="386" rx="24" fill="#0f2232" stroke="#33576f"/>
  <text x="786" y="76" fill="#f8fafc" font-family="Microsoft YaHei,sans-serif" font-size="19" font-weight="700">实验参数</text>
  <text x="786" y="124" fill="#94a3b8" font-family="Microsoft YaHei,sans-serif" font-size="14">斜面倾角</text>
  <rect x="786" y="143" width="256" height="8" rx="4" fill="#23455a"/>
  <rect x="786" y="143" width="112" height="8" rx="4" fill="#38bdf8"/>
  <circle cx="898" cy="147" r="11" fill="#e0f2fe" stroke="#38bdf8" stroke-width="4"/>
  <text x="1058" y="152" text-anchor="end" fill="#7dd3fc" font-family="Microsoft YaHei,sans-serif" font-size="18" font-weight="700">24°</text>
  <text x="786" y="199" fill="#94a3b8" font-family="Microsoft YaHei,sans-serif" font-size="14">摩擦系数</text>
  <rect x="786" y="218" width="256" height="8" rx="4" fill="#23455a"/>
  <rect x="786" y="218" width="64" height="8" rx="4" fill="#a78bfa"/>
  <circle cx="850" cy="222" r="11" fill="#ede9fe" stroke="#a78bfa" stroke-width="4"/>
  <text x="1058" y="227" text-anchor="end" fill="#c4b5fd" font-family="Microsoft YaHei,sans-serif" font-size="18" font-weight="700">0.12</text>
  <rect x="786" y="272" width="272" height="52" rx="14" fill="#0284c7"/>
  <text x="922" y="305" text-anchor="middle" fill="white" font-family="Microsoft YaHei,sans-serif" font-size="17" font-weight="700">释放滑块</text>
  <rect x="786" y="340" width="130" height="42" rx="12" fill="#172f42" stroke="#4b7189"/>
  <rect x="928" y="340" width="130" height="42" rx="12" fill="#172f42" stroke="#4b7189"/>
  <text x="851" y="367" text-anchor="middle" fill="#d7e7f2" font-family="Microsoft YaHei,sans-serif" font-size="14">复位位置</text>
  <text x="993" y="367" text-anchor="middle" fill="#d7e7f2" font-family="Microsoft YaHei,sans-serif" font-size="14">记录数据</text>
</svg>
